<svg width="181" height="181" viewBox="0 0 181 181" fill="none" xmlns="http://www.w3.org/2000/svg">
<path d="M93.7323 16.1607V22.625H76.1636C76.5907 23.7339 77.0901 24.8136 77.6585 25.8571H87.268V32.3214H82.5875C82.6255 32.3578 82.6606 32.3969 82.6986 32.4329L90.5002 39.8632L98.3018 32.4329C98.3397 32.3969 98.3749 32.3578 98.4129 32.3214H93.7323V25.8571H103.341C103.91 24.8136 104.409 23.7339 104.836 22.625H100.197V16.1607H106.456C106.518 15.6472 106.568 15.1317 106.601 14.6137C95.9852 12.367 85.0167 12.367 74.4009 14.6137C74.4336 15.1317 74.4837 15.6472 74.5463 16.1607H93.7323Z" fill="#C3C3C3"/>
<path d="M81.1196 61.4107H99.8806C97.3168 56.8339 94.163 52.6137 90.5001 48.8583C86.8372 52.6137 83.6834 56.8339 81.1196 61.4107Z" fill="#C3C3C3"/>
<path d="M99.8806 119.589H81.1196C83.6833 124.166 86.8371 128.386 90.5001 132.141C94.1631 128.386 97.3169 124.166 99.8806 119.589Z" fill="#C3C3C3"/>
<path d="M78.2402 143.886L85.8539 136.635C73.8578 124.274 67.1483 107.725 67.1483 90.5C67.1483 73.2745 73.8578 56.7264 85.8539 44.3648L78.2406 37.1139C72.4675 31.593 68.8524 24.1943 68.0448 16.2472C36.1872 25.9 12.9287 55.5327 12.9287 90.5C12.9287 125.467 36.1872 155.1 68.0444 164.753C68.852 156.806 72.4671 149.407 78.2402 143.886Z" fill="#C3C3C3"/>
<path d="M105.198 74.3393C104.588 72.1436 103.85 69.9852 102.989 67.875H78.0112C77.1503 69.9852 76.4127 72.1436 75.802 74.3393H93.7323V80.8036H74.3884C74.043 82.9444 73.8127 85.1023 73.6987 87.2678H87.2681V93.7321H73.6987C73.8127 95.8977 74.043 98.0555 74.3884 100.196H80.8038V106.661H75.802C76.4126 108.856 77.1502 111.015 78.0112 113.125H102.989C103.85 111.015 104.588 108.856 105.198 106.661H87.2681V100.196H106.612C106.958 98.0556 107.188 95.8977 107.302 93.7321H93.7323V87.2678H107.302C107.188 85.1023 106.958 82.9444 106.612 80.8036H100.197V74.3393H105.198Z" fill="#C3C3C3"/>
<path d="M154.493 26.5068C137.521 9.53479 114.502 0 90.5 0C66.4979 0 43.4789 9.53479 26.5068 26.5068C9.53479 43.4789 0 66.4979 0 90.5C0 114.502 9.53479 137.521 26.5068 154.493C43.4789 171.465 66.4979 181 90.5 181C114.502 181 137.521 171.465 154.493 154.493C171.465 137.521 181 114.502 181 90.5C181 66.4979 171.465 43.4789 154.493 26.5068ZM90.5 174.536C44.1628 174.536 6.46433 136.837 6.46433 90.5C6.46433 44.1628 44.1628 6.46433 90.5 6.46433C136.837 6.46433 174.536 44.1628 174.536 90.5C174.536 136.837 136.837 174.536 90.5 174.536Z" fill="#C3C3C3"/>
<path d="M112.955 16.2472C112.148 24.1943 108.533 31.5929 102.76 37.1139L95.146 44.3648C107.142 56.7264 113.852 73.2745 113.852 90.5C113.852 107.725 107.142 124.274 95.146 136.635L102.759 143.886C108.532 149.407 112.147 156.806 112.955 164.753C144.813 155.1 168.071 125.467 168.071 90.5C168.071 55.5327 144.813 25.9 112.955 16.2472Z" fill="#C3C3C3"/>
<path d="M100.196 164.839V158.375H104.832C104.404 157.266 103.903 156.186 103.334 155.143H93.732V148.679H98.4129C98.3749 148.642 98.3394 148.603 98.3014 148.567L90.4998 141.137L82.6983 148.567C82.6603 148.603 82.6247 148.642 82.5867 148.679H87.2677V155.143H77.6658C77.0962 156.186 76.5958 157.266 76.1677 158.375H93.732V164.839H74.5476C74.485 165.353 74.4317 165.868 74.3989 166.386C85.0148 168.633 95.9833 168.633 106.599 166.386C106.566 165.868 106.513 165.353 106.45 164.839H100.196Z" fill="#C3C3C3"/>
</svg>
