<svg version="1.2" xmlns="http://www.w3.org/2000/svg" viewBox="0 0 29 40" width="29" height="40">
	<title>icon-location-blue</title>
	<style>
		.s0 { fill: #8e9174 } 
	</style>
	<path class="s0" d="m13.1 39.5c0.2 0.3 0.6 0.5 1 0.5 0.4 0 0.7-0.2 0.9-0.5 2.8-4.2 6.9-9.3 9.7-14.5 2.3-4.2 3.4-7.8 3.4-10.9 0-7.8-6.3-14.1-14-14.1-7.8 0-14.1 6.3-14.1 14.1 0 3.1 1.1 6.7 3.4 10.9 2.8 5.2 6.9 10.3 9.7 14.5zm1-37.2c6.4 0 11.7 5.3 11.7 11.8 0 2.7-1 5.9-3.1 9.7-2.5 4.5-6 9.1-8.6 12.9-2.7-3.8-6.2-8.4-8.7-12.9-2-3.8-3.1-7-3.1-9.7 0-6.5 5.3-11.8 11.8-11.8z"/>
	<path class="s0" d="m14.1 21.1c3.8 0 7-3.2 7-7 0-3.9-3.2-7.1-7-7.1-3.9 0-7.1 3.2-7.1 7.1 0 3.8 3.2 7 7.1 7zm0-11.7c2.5 0 4.7 2.1 4.7 4.7 0 2.5-2.2 4.6-4.7 4.6-2.6 0-4.7-2.1-4.7-4.6 0-2.6 2.1-4.7 4.7-4.7z"/>
</svg>