<svg version="1.2" xmlns="http://www.w3.org/2000/svg" viewBox="0 0 17 17" width="17" height="17">
	<title>icon-service-list-dot</title>
	<style>
		.s0 { fill: #ffffff } 
		.s1 { opacity: .5;fill: #effaff } 
		.s2 { opacity: .5;fill: #ffffff } 
	</style>
	<path fill-rule="evenodd" class="s0" d="m3 17c-1.7 0-3-1.3-3-3 0-1.7 1.3-3 3-3 1.7 0 3 1.3 3 3 0 1.7-1.3 3-3 3z"/>
	<path fill-rule="evenodd" class="s1" d="m14 17c-1.7 0-3-1.3-3-3 0-1.7 1.3-3 3-3 1.7 0 3 1.3 3 3 0 1.7-1.3 3-3 3z"/>
	<path fill-rule="evenodd" class="s2" d="m3 6c-1.7 0-3-1.3-3-3 0-1.7 1.3-3 3-3 1.7 0 3 1.3 3 3 0 1.7-1.3 3-3 3z"/>
</svg>