<svg version="1.2" xmlns="http://www.w3.org/2000/svg" viewBox="0 0 168 168" width="168" height="168">
	<title>video-play-button</title>
	<style>
		.s0 { fill: #3d5641 } 
		.s1 { fill: #ffffff } 
	</style>
	<path class="s0" d="m168 84c0 46.4-37.6 84-84 84-46.4 0-84-37.6-84-84 0-46.4 37.6-84 84-84 46.4 0 84 37.6 84 84zm-142.8 0c0 32.5 26.3 58.8 58.8 58.8 32.5 0 58.8-26.3 58.8-58.8 0-32.5-26.3-58.8-58.8-58.8-32.5 0-58.8 26.3-58.8 58.8z"/>
	<path class="s1" d="m87.4 15.5l0.1-1.2 1.9 0.2q0.5 0 0.9-0.1 0.4-0.2 0.7-0.6 0.2-0.4 0.3-0.9 0-0.5-0.1-0.9-0.2-0.4-0.6-0.6-0.3-0.3-0.9-0.3l-1.8-0.2 0.1-1.3 1.7 0.2q1.1 0.1 1.8 0.5 0.7 0.5 1 1.1 0.3 0.7 0.2 1.6v0.2q-0.1 0.9-0.5 1.5-0.5 0.6-1.3 0.9-0.8 0.2-1.9 0.1zm-1.5 2.7l1-8.7 1.4 0.1-0.9 8.8z"/>
	<path class="s1" d="m99.8 20.2l2.6-8.4 1.4 0.5-2.6 8.3zm1.1 0.4l0.4-1.2 3.7 1.1-0.4 1.3z"/>
	<path class="s1" d="m110.8 23.7l7-6 2 1.1-1.6 9.2-1.2-0.7 1.4-8.2 0.4 0.6-1.3-0.8 0.7 0.1-6.2 5.5zm3-1.2l1-0.9 3.2 1.9-0.2 1.3z"/>
	<path class="s1" d="m128.1 30.8l1.6-5.8 1.1 1-1.4 4.8-0.2-0.4 1 0.8-0.5-0.2 4.5-1.8 1.1 0.9-5.6 2.3zm-1.9 2.7l2.4-2.6 1.1 0.9-2.5 2.7z"/>
	<path class="s1" d="m139 48l6.1-6.9 0.7 1.2-5.5 6.1v-0.6l0.7 1.2-0.5-0.4 7.9-1.8 0.7 1.2-8.9 2z"/>
	<path class="s1" d="m145 59.7l8.2-3 0.5 1.4-8.2 3z"/>
	<path class="s1" d="m147.8 67.8l1.3-0.2 0.3 2q0.2 0.7 0.5 1.3 0.3 0.5 0.8 0.8 0.5 0.4 1.1 0.5 0.6 0.1 1.2 0 0.7-0.1 1.2-0.4 0.6-0.3 0.9-0.8 0.3-0.5 0.5-1.1 0.1-0.6 0-1.3l-0.4-2 1.4-0.2 0.3 1.9q0.2 1.1-0.1 2.1-0.2 0.9-0.7 1.6-0.5 0.7-1.2 1.1-0.7 0.4-1.5 0.5h-0.3q-0.7 0.2-1.5 0-0.9-0.1-1.6-0.6-0.7-0.5-1.2-1.3-0.5-0.8-0.7-2zm-0.2-1.2l8.8-1.4 0.2 1.4-8.7 1.4z"/>
	<path class="s1" d="m149.8 83.8l8.7 0.6-0.1 1.5-8.7-0.6zm-0.1 1.2h1.3l-0.3 4.1h-1.3zm3.9 0.2l1.2 0.1-0.3 3.8-1.2-0.1zm3.7 0.2l1.2 0.1-0.2 4-1.3-0.1z"/>
	<path class="s1" d="m147.3 101q0.4-1.1 1-1.8 0.7-0.7 1.5-1 0.8-0.4 1.7-0.4 0.8 0 1.5 0.2l0.2 0.1q0.8 0.3 1.5 0.8 0.6 0.5 1.1 1.2 0.4 0.8 0.5 1.7 0.1 0.9-0.2 2-0.4 1.1-1 1.8-0.7 0.7-1.5 1.1-0.8 0.3-1.6 0.3-0.8 0-1.6-0.2l-0.2-0.1q-0.7-0.2-1.4-0.7-0.7-0.5-1.1-1.3-0.5-0.7-0.6-1.6-0.2-1 0.2-2.1zm1.3 0.4q-0.3 0.7-0.2 1.3 0.1 0.6 0.4 1.2 0.3 0.5 0.8 0.9 0.5 0.4 1.1 0.6 0.7 0.2 1.3 0.2 0.6-0.1 1.2-0.3 0.6-0.3 1-0.7 0.4-0.5 0.6-1.2 0.2-0.7 0.2-1.3-0.1-0.6-0.4-1.1-0.3-0.6-0.8-1-0.5-0.3-1.2-0.5-0.6-0.3-1.2-0.2-0.6 0-1.2 0.2-0.6 0.3-1 0.7-0.4 0.5-0.6 1.2z"/>
	<path class="s1" d="m132.4 128.4l5.5 5.4-1 1.1-5.5-5.5zm7.2 3.4l0.9 0.9-4.7 4.8-0.9-0.9z"/>
	<path class="s1" d="m125.8 135.2l2.2 9-2 1.3-7.5-5.6 1.3-0.8 6.6 5-0.7 0.1 1.2-0.8-0.3 0.6-2-8zm-0.4 3.1l0.3 1.3-3 2-1.1-0.8z"/>
	<path class="s1" d="m105.5 146.1l4.6 2.7 1.1-0.4-2.1 5.7-1.6 0.6 2-5.2 0.3 0.8-5.9-3.6zm5.2-1.9l2.9 8.3-1.3 0.5-2.9-8.3z"/>
	<path class="s1" d="m96.6 148.7l1.1 8.7-1.5 0.1-1-8.7zm-1.2 0.2l0.2 1.2-4.1 0.5-0.1-1.3zm0.4 3.9l0.2 1.2-3.8 0.4-0.1-1.2zm0.4 3.7l0.2 1.2-4 0.5-0.2-1.3z"/>
	<path class="s1" d="m79 149.9l-4.6 8.1-2.3-0.5-1.5-9.2 1.4 0.3 1.3 8.2-0.5-0.4 1.4 0.3-0.7 0.1 4.1-7.2zm-2.4 2.1l-0.7 1.2-3.6-0.7-0.2-1.3z"/>
	<path class="s1" d="m55.5 143.3l-1.8 9.1-1.3-0.8 1.6-8 0.4 0.5-1.2-0.7 0.6 0.1-5.8 5.7-1.3-0.7 6.7-6.4z"/>
	<path class="s1" d="m44.2 136.3l-5.5 6.8-1.1-0.9 5.5-6.8z"/>
	<path class="s1" d="m38.6 131.8l-6.6 5.8-1-1.1 6.6-5.8zm-3.6-4.1l-1 4.7-1.1-1.2 1-4.7zm0.6 5.3l-0.9 0.8-1.5-1.7q-0.3-0.4-0.7-0.6-0.4-0.1-0.8 0-0.4 0.1-0.8 0.4-0.4 0.3-0.5 0.7-0.2 0.4-0.1 0.9 0.1 0.4 0.4 0.8l1.6 1.7-1 0.8-1.4-1.6q-0.6-0.7-0.9-1.5-0.3-0.7-0.1-1.4 0.2-0.8 0.9-1.4l0.2-0.1q0.7-0.7 1.4-0.7 0.8-0.2 1.5 0.2 0.7 0.4 1.4 1.1z"/>
	<path class="s1" d="m28.2 118.7l-6.8 3.8-0.7-1.3 6.8-3.7zm-5.3 5.9l-1.1 0.6-3.2-5.8 1.1-0.6z"/>
	<path class="s1" d="m22 105.1q0.3 1.1 0.1 2.1-0.2 0.9-0.9 1.5-0.7 0.7-1.8 1l-5 1.4-0.4-1.3 5.1-1.5q0.7-0.2 1.1-0.6 0.4-0.4 0.6-1 0.1-0.5-0.1-1.3-0.2-0.7-0.6-1.1-0.4-0.4-1-0.5-0.6-0.1-1.2 0.1l-5.2 1.5-0.4-1.4 5.1-1.4q1-0.3 2-0.2 0.9 0.2 1.6 0.9 0.6 0.6 1 1.8z"/>
	<path class="s1" d="m18.6 93.1l-8.9-2.9v-2.4l8.7-3.4v1.5l-7.7 3 0.2-0.6 0.1 1.5-0.3-0.7 7.8 2.5zm-2.5-1.9l-1.2-0.4-0.1-3.7 1.2-0.5z"/>
	<path class="s1" d="m18.8 75.7l-8.6-1.7 0.2-1.4 8.6 1.7zm0.3-1.2l-1.3-0.3 0.7-3.8 1.3 0.3z"/>
	<path class="s1" d="m23.8 57.6l-6.9-3.4 0.6-1.3 7 3.4zm-7.9-0.9l-1.1-0.6 2.9-6 1.1 0.6z"/>
	<path class="s1" d="m31.7 44.7q-0.8 0.9-1.7 1.3-0.8 0.4-1.7 0.3-0.9 0-1.7-0.3-0.8-0.3-1.3-0.7l-0.2-0.2q-0.6-0.5-1.1-1.2-0.4-0.8-0.5-1.6-0.1-0.9 0.1-1.8 0.3-0.9 1-1.8 0.7-0.9 1.6-1.3 0.8-0.4 1.7-0.4 0.9 0 1.7 0.3 0.8 0.3 1.4 0.8l0.2 0.2q0.5 0.4 0.9 1.2 0.5 0.7 0.6 1.5 0.2 0.9 0 1.8-0.3 1-1 1.9zm-1.1-0.9q0.5-0.5 0.7-1.2 0.1-0.6 0.1-1.2-0.1-0.6-0.5-1.1-0.3-0.6-0.8-1-0.5-0.4-1.1-0.6-0.6-0.3-1.2-0.2-0.6 0-1.2 0.3-0.5 0.2-1 0.8-0.4 0.5-0.6 1.1-0.2 0.6-0.1 1.2 0.1 0.6 0.4 1.2 0.3 0.5 0.8 1 0.5 0.4 1.1 0.6 0.6 0.2 1.2 0.2 0.6 0 1.2-0.3 0.6-0.2 1-0.8z"/>
	<path class="s1" d="m44.7 31.7q-1 0.6-2 0.7-0.9 0.1-1.7-0.3-0.8-0.5-1.5-1.4l-2.9-4.4 1.2-0.8 3 4.5q0.4 0.5 0.9 0.8 0.5 0.3 1.1 0.2 0.5 0 1.1-0.4 0.6-0.4 0.9-0.9 0.3-0.6 0.2-1.1-0.1-0.6-0.5-1.2l-3-4.4 1.2-0.8 3 4.3q0.6 0.9 0.7 1.9 0.1 0.9-0.3 1.8-0.4 0.8-1.4 1.5z"/>
	<path class="s1" d="m56.3 24.3l-3-8.3 1.3-0.5 3 8.3zm5.1-1.8l-3.9-2.7 1.5-0.6 4 2.7zm-5.2-1.4l-0.4-1.1 2.2-0.8q0.4-0.2 0.7-0.5 0.3-0.3 0.4-0.8 0-0.4-0.1-0.8-0.2-0.5-0.5-0.8-0.3-0.3-0.7-0.3-0.5-0.1-1 0.1l-2.1 0.7-0.4-1.1 1.9-0.7q1-0.4 1.8-0.3 0.8 0 1.4 0.4 0.6 0.5 0.9 1.4l0.1 0.2q0.3 0.9 0.1 1.6-0.2 0.7-0.8 1.2-0.6 0.5-1.5 0.9z"/>
	<path fill-rule="evenodd" class="s1" d="m73.5 15.1c-1.2 0-2.1-0.9-2.1-2.1 0-1.1 0.9-2.1 2.1-2.1 1.2 0 2.1 1 2.1 2.1 0 1.2-0.9 2.1-2.1 2.1z"/>
	<path fill-rule="evenodd" class="s1" d="m143.2 121.8c-1.1 0-2.1-0.9-2.1-2.1 0-1.2 1-2.1 2.1-2.1 1.2 0 2.1 0.9 2.1 2.1 0 1.2-0.9 2.1-2.1 2.1z"/>
</svg>