<svg version="1.2" xmlns="http://www.w3.org/2000/svg" viewBox="0 0 181 181" width="181" height="181">
	<title>contact-us-circle</title>
	<style>
		.s0 { fill: #3d5641 } 
		.s1 { fill: #f7f3ed } 
	</style>
	<path fill-rule="evenodd" class="s0" d="m90.5 180.4c-49.8 0-90-40.3-90-90 0-49.8 40.2-90 90-90 49.8 0 90 40.2 90 90 0 49.7-40.2 90-90 90z"/>
	<path class="s1" d="m96.8 26.2q-1.9-0.3-3.1-1.2-1.3-1-1.9-2.5-0.5-1.5-0.3-3.4 0.2-1.9 1.1-3.3 0.9-1.4 2.4-2 1.4-0.7 3.2-0.5 2.3 0.3 3.5 1.5 1.3 1.3 1.5 3.3l-2.4-0.3q-0.1-1-0.8-1.7-0.7-0.7-2-0.9-1.2-0.1-2.1 0.4-0.9 0.4-1.5 1.4-0.6 0.9-0.7 2.3-0.2 1.4 0.2 2.5 0.3 1 1.1 1.7 0.8 0.6 2 0.7 1.3 0.2 2.1-0.3 0.8-0.4 1.2-1.4l2.3 0.3q-0.6 1.8-2.1 2.7-1.5 0.9-3.7 0.7z"/>
	<path class="s1" d="m110.1 29q-1.2-0.4-2-1.3-0.8-0.9-1-2.1-0.2-1.1 0.2-2.4 0.5-1.4 1.4-2.2 0.9-0.8 2-1 1.2-0.2 2.4 0.2 1.2 0.4 2 1.3 0.8 0.9 1 2.1 0.2 1.1-0.2 2.5-0.5 1.3-1.4 2.1-0.9 0.8-2.1 1-1.1 0.2-2.3-0.2zm0.6-1.7q0.6 0.2 1.2 0.1 0.6-0.2 1.1-0.7 0.5-0.4 0.8-1.3 0.3-0.9 0.2-1.6-0.1-0.7-0.5-1.2-0.4-0.5-1-0.7-0.6-0.2-1.2 0-0.6 0.1-1.1 0.6-0.5 0.5-0.8 1.4-0.3 0.8-0.2 1.5 0.1 0.7 0.5 1.2 0.4 0.5 1 0.7z"/>
	<path class="s1" d="m118.3 31.9l4.4-7.7 1.7 1-0.6 1.3q0.7-0.4 1.6-0.5 0.9 0 1.8 0.5 1 0.6 1.4 1.4 0.5 0.7 0.4 1.7-0.1 1-0.8 2.1l-2.5 4.5-1.9-1.1 2.5-4.3q0.5-1 0.4-1.7-0.1-0.8-0.9-1.3-0.6-0.3-1.2-0.3-0.6 0-1.2 0.4-0.5 0.3-0.9 1l-2.4 4.1z"/>
	<path class="s1" d="m131.9 40.9q-0.7-0.6-1-1.2-0.4-0.6-0.2-1.4 0.1-0.7 0.8-1.6l2.6-3.2-1.2-0.9 1.2-1.4 1.2 0.9 1.6-1.6 1.5 1.2-1.5 1.8 1.9 1.5-1.1 1.4-1.9-1.5-2.6 3.2q-0.4 0.5-0.4 0.9 0.1 0.3 0.6 0.8l0.9 0.7-1.2 1.4z"/>
	<path class="s1" d="m137.8 46.8q-0.7-0.8-0.9-1.6-0.2-0.8 0-1.5 0.2-0.7 0.8-1.2 0.6-0.5 1.4-0.6 0.7-0.1 1.5 0.3 0.9 0.4 1.7 1.4l1.5 1.7q0.5-0.5 0.7-1 0.2-0.4 0.1-0.9 0-0.4-0.5-0.9-0.5-0.6-1.1-0.7-0.6-0.2-1.2 0.1l-1.4-1.5q0.8-0.6 1.7-0.7 0.9 0 1.8 0.4 0.8 0.4 1.5 1.2 0.9 1 1.1 1.9 0.3 1 0 1.9-0.3 0.9-1.1 1.6l-4.1 3.7-1.2-1.4 0.9-1.1q-0.4 0.1-0.8 0.1-0.4 0-0.8-0.1-0.4-0.2-0.8-0.4-0.4-0.3-0.8-0.7zm1.6-0.8q0.4 0.4 0.8 0.6 0.4 0.2 0.8 0.2 0.5 0 0.9-0.2 0.4-0.2 0.8-0.4v-0.1l-1.3-1.4q-0.4-0.5-0.8-0.7-0.4-0.2-0.7-0.2-0.3 0.1-0.6 0.3-0.3 0.3-0.4 0.6-0.1 0.3 0.1 0.6 0.1 0.4 0.4 0.7z"/>
	<path class="s1" d="m145.8 57.3q-0.7-1.1-0.7-2.3-0.1-1.2 0.5-2.3 0.6-1 1.8-1.7 1.2-0.7 2.4-0.8 1.2 0 2.2 0.6 1.1 0.6 1.8 1.7 0.9 1.5 0.7 2.9-0.2 1.4-1.3 2.5l-1.2-2q0.5-0.5 0.6-1.1 0-0.7-0.4-1.4-0.3-0.5-0.9-0.8-0.6-0.3-1.3-0.2-0.7 0-1.4 0.5-0.6 0.3-1 0.7-0.3 0.5-0.5 0.9-0.1 0.5-0.1 1 0.1 0.5 0.3 0.9 0.3 0.4 0.6 0.7 0.4 0.3 0.8 0.3 0.5 0.1 0.9 0l1.2 1.9q-1.4 0.5-2.8 0-1.4-0.5-2.2-2z"/>
	<path class="s1" d="m151.2 67.8q-0.3-0.9-0.3-1.6 0-0.7 0.5-1.3 0.4-0.6 1.5-1l3.8-1.5-0.6-1.5 1.7-0.6 0.6 1.4 2.2-0.6 0.7 1.7-2.2 0.9 0.9 2.3-1.6 0.6-0.9-2.2-3.8 1.5q-0.7 0.2-0.8 0.6-0.1 0.4 0.1 1l0.4 1-1.6 0.7z"/>
	<path class="s1" d="m155 84.2q-0.1-1.3 0.3-2.5 0.4-1.1 1.4-1.9 1.1-0.7 2.7-0.9l7.8-0.7 0.2 2.1-7.8 0.8q-1 0.1-1.6 0.5-0.6 0.4-0.9 1-0.3 0.7-0.2 1.5 0.1 0.8 0.5 1.4 0.4 0.6 1.1 0.9 0.7 0.2 1.7 0.1l7.7-0.7 0.2 2.1-7.7 0.8q-1.7 0.1-2.8-0.4-1.2-0.6-1.8-1.6-0.7-1.1-0.8-2.5z"/>
	<path class="s1" d="m155.2 97.1q0.1-1.1 0.5-2 0.5-0.8 1.2-1.3 0.8-0.4 1.6-0.5l-0.2 2.2q-0.3 0-0.7 0.2-0.3 0.3-0.5 0.6-0.2 0.4-0.3 1 0 0.5 0.1 0.8 0.1 0.4 0.3 0.6 0.3 0.1 0.6 0.2 0.4 0 0.6-0.2 0.3-0.2 0.4-0.7 0.2-0.4 0.4-1 0.2-0.5 0.4-1.1 0.2-0.6 0.6-1 0.3-0.5 0.8-0.7 0.4-0.3 1.1-0.2 0.7 0 1.3 0.5 0.6 0.5 0.9 1.3 0.3 0.8 0.2 1.9-0.2 1.6-1 2.4-0.8 0.9-2.1 0.9l0.2-2q0.5 0 0.8-0.4 0.4-0.4 0.4-1 0.1-0.7-0.2-1.1-0.2-0.4-0.6-0.4-0.3 0-0.5 0.2-0.2 0.2-0.4 0.6-0.2 0.4-0.4 1-0.3 0.9-0.6 1.6-0.4 0.8-0.9 1.2-0.5 0.4-1.5 0.3-0.8 0-1.5-0.6-0.6-0.5-0.9-1.3-0.2-0.9-0.1-2z"/>
	<path class="s1" d="m157.8 116l2.3 1.2-0.7-2.5 1.6-0.3 0.1 2.6 1.7-1.9 1 1.2-2.2 1.4 2.5 0.6-0.5 1.5-2.3-1.2 0.7 2.5-1.5 0.2-0.1-2.6-1.7 1.9-1.1-1.2 2.2-1.4-2.5-0.6z"/>
	<path class="s1" d="m141.7 131.7q1.2-1.4 2.7-2 1.4-0.6 3-0.3 1.6 0.4 3.1 1.6 1.5 1.1 2.2 2.6 0.7 1.5 0.6 3.1-0.2 1.5-1.4 3-1.4 1.8-3.1 2.2-1.7 0.4-3.5-0.5l1.4-1.9q1 0.5 2 0.2 0.9-0.2 1.7-1.2 0.7-0.9 0.8-2 0.1-1-0.4-2-0.5-1-1.6-1.8-1.1-0.9-2.2-1.2-1.1-0.2-2.1 0.1-0.9 0.4-1.6 1.3-0.8 1-0.9 2 0 0.9 0.6 1.7l-1.4 1.9q-1.3-1.4-1.3-3.2 0.1-1.8 1.4-3.6z"/>
	<path class="s1" d="m132.4 141.6q0.9-0.8 2.1-1 1.2-0.2 2.3 0.2 1.1 0.5 2 1.5 0.9 1.1 1.1 2.3 0.2 1.2-0.2 2.3-0.4 1.1-1.4 1.9-1 0.8-2.1 1-1.2 0.2-2.3-0.2-1.1-0.4-2-1.5-0.9-1.1-1.1-2.3-0.2-1.1 0.2-2.3 0.4-1.1 1.4-1.9zm1.1 1.4q-0.5 0.4-0.6 1-0.3 0.6-0.1 1.3 0.1 0.7 0.7 1.4 0.6 0.7 1.3 1 0.6 0.3 1.3 0.2 0.6-0.1 1-0.5 0.5-0.4 0.7-1 0.2-0.6 0.1-1.3-0.2-0.7-0.8-1.4-0.6-0.7-1.2-1-0.7-0.2-1.3-0.2-0.6 0.1-1.1 0.5z"/>
	<path class="s1" d="m125.6 147.1l4.3 7.8-1.7 1-0.8-1.3q0 0.9-0.4 1.7-0.5 0.8-1.4 1.3-1 0.5-1.9 0.5-0.9 0-1.7-0.6-0.8-0.6-1.4-1.8l-2.5-4.4 1.9-1.1 2.4 4.3q0.6 1 1.3 1.3 0.7 0.4 1.6-0.1 0.6-0.3 0.9-0.9 0.2-0.5 0.2-1.2 0-0.6-0.4-1.3l-2.3-4.1z"/>
	<path class="s1" d="m110.8 154.1q0.9-0.3 1.6-0.2 0.8 0 1.3 0.5 0.6 0.5 1 1.6l1.3 3.9 1.5-0.6 0.6 1.7-1.5 0.5 0.6 2.3-1.8 0.6-0.8-2.2-2.3 0.9-0.6-1.7 2.3-0.8-1.4-3.9q-0.2-0.6-0.5-0.8-0.4-0.1-1.1 0.1l-1 0.3-0.6-1.7z"/>
	<path class="s1" d="m102.7 156.1q1.1-0.2 1.9 0 0.8 0.3 1.3 0.8 0.4 0.6 0.6 1.3 0.1 0.8-0.2 1.5-0.3 0.7-1.1 1.2-0.8 0.5-2 0.7l-2.3 0.4q0.2 0.7 0.4 1.1 0.3 0.4 0.8 0.6 0.4 0.2 1 0 0.8-0.1 1.2-0.5 0.5-0.5 0.5-1.1l2.1-0.4q0 1-0.4 1.7-0.4 0.8-1.2 1.4-0.8 0.5-1.9 0.7-1.2 0.2-2.2-0.1-0.9-0.3-1.5-1-0.6-0.7-0.8-1.8l-1-5.4 1.8-0.3 0.4 1.3q0.2-0.3 0.4-0.7 0.2-0.3 0.5-0.6 0.3-0.3 0.8-0.5 0.4-0.2 0.9-0.3zm-0.1 1.8q-0.5 0.1-0.9 0.3-0.4 0.3-0.6 0.7-0.2 0.3-0.3 0.8-0.1 0.4-0.1 0.9l2-0.3q0.6-0.1 1-0.4 0.4-0.2 0.5-0.5 0.1-0.3 0.1-0.6-0.1-0.4-0.3-0.6-0.2-0.3-0.6-0.4-0.4 0-0.8 0.1z"/>
	<path class="s1" d="m89.6 157.4q1.3 0 2.3 0.6 1.1 0.6 1.6 1.7 0.6 1 0.6 2.4 0 1.4-0.6 2.4-0.6 1.1-1.6 1.7-1.1 0.6-2.4 0.5-1.7 0-2.8-0.8-1.2-0.9-1.5-2.4h2.3q0.1 0.6 0.7 1 0.6 0.4 1.3 0.4 0.7 0 1.2-0.3 0.6-0.3 0.9-1 0.3-0.6 0.3-1.5 0-0.7-0.1-1.2-0.2-0.5-0.5-0.9-0.4-0.4-0.8-0.6-0.4-0.2-0.9-0.2-0.5 0-1 0.2-0.4 0.2-0.7 0.5-0.3 0.3-0.4 0.8h-2.2q0.3-1.5 1.4-2.4 1.2-0.9 2.9-0.9z"/>
	<path class="s1" d="m77.8 156.6q0.9 0.1 1.5 0.5 0.6 0.4 0.9 1.1 0.2 0.7 0 1.9l-0.7 4 1.6 0.3-0.3 1.7-1.6-0.2-0.6 2.2-1.8-0.3 0.4-2.3-2.5-0.4 0.3-1.8 2.4 0.4 0.7-4q0.1-0.7-0.1-1-0.2-0.3-0.9-0.4l-1.1-0.2 0.3-1.8z"/>
	<path class="s1" d="m63.1 151.9q1 0.5 1.5 1.2 0.5 0.7 0.5 1.7 0 1-0.5 2.2l-2.2 4.6-2-0.9 2.1-4.4q0.5-1.1 0.4-1.9-0.2-0.7-1.2-1.2-0.5-0.2-1.1-0.2-0.6 0.1-1.1 0.5-0.6 0.4-0.9 1.2l-2 4.2-1.9-0.9 3.7-8.1 1.7 0.8-0.4 1.5q0.7-0.6 1.6-0.7 0.9 0 1.8 0.4z"/>
	<path class="s1" d="m52 145.6q1 0.7 1.5 1.5 0.5 0.9 0.5 1.7 0 0.9-0.4 1.7l-1.8-1.3q0.2-0.3 0.2-0.7-0.1-0.4-0.3-0.8-0.2-0.4-0.6-0.7-0.5-0.3-0.8-0.4-0.4 0-0.7 0.1-0.2 0.1-0.4 0.3-0.2 0.4-0.2 0.7 0.1 0.3 0.4 0.6 0.2 0.4 0.7 0.9 0.4 0.4 0.8 0.9 0.3 0.5 0.6 1 0.2 0.5 0.2 1-0.1 0.6-0.4 1.1-0.5 0.6-1.2 0.9-0.7 0.3-1.5 0.1-0.9-0.2-1.8-0.8-1.3-0.9-1.6-2-0.3-1.2 0.3-2.3l1.6 1.2q-0.2 0.4 0 0.9 0.1 0.5 0.7 0.8 0.6 0.4 1 0.4 0.4 0 0.7-0.3 0.1-0.2 0.1-0.5-0.1-0.4-0.3-0.7-0.3-0.4-0.7-0.8-0.7-0.8-1.2-1.4-0.4-0.7-0.5-1.4-0.1-0.6 0.5-1.4 0.4-0.7 1.2-1 0.7-0.3 1.6-0.1 0.9 0.2 1.8 0.8z"/>
	<path class="s1" d="m34.4 138.5l-2.2 1.4 2.5 0.6-0.6 1.5-2.3-1.2 0.8 2.4-1.5 0.3-0.2-2.6-1.7 1.9-1-1.2 2.2-1.4-2.5-0.6 0.6-1.5 2.2 1.2-0.8-2.4 1.6-0.3 0.1 2.6 1.8-1.9z"/>
	<path class="s1" d="m28.7 116.7q0.7 1.7 0.5 3.3-0.3 1.5-1.3 2.8-1.1 1.2-2.9 1.9-1.8 0.7-3.4 0.6-1.6-0.1-2.9-1.1-1.3-0.9-2-2.7-0.8-2-0.3-3.8 0.5-1.7 2.2-2.8l0.9 2.2q-0.9 0.6-1.2 1.6-0.3 0.9 0.2 2.1 0.5 1.1 1.3 1.7 0.8 0.6 2 0.6 1.1 0.1 2.4-0.4 1.3-0.6 2.1-1.4 0.7-0.8 0.9-1.8 0.2-1-0.3-2.1-0.5-1.2-1.3-1.7-0.8-0.5-1.8-0.3l-0.9-2.2q1.9-0.4 3.4 0.5 1.6 0.9 2.4 3z"/>
	<path class="s1" d="m24.9 103.6q0.2 1.3-0.2 2.4-0.4 1.1-1.4 1.9-0.9 0.7-2.3 0.9-1.3 0.3-2.5-0.1-1.1-0.4-1.9-1.3-0.7-1-1-2.2-0.2-1.3 0.2-2.4 0.4-1.1 1.4-1.9 0.9-0.7 2.3-1 1.3-0.2 2.5 0.2 1.1 0.4 1.9 1.4 0.7 0.9 1 2.1zm-1.9 0.3q-0.1-0.6-0.5-1.1-0.4-0.4-1.1-0.6-0.6-0.3-1.6-0.1-0.9 0.2-1.4 0.6-0.6 0.4-0.8 1-0.2 0.5-0.1 1.2 0.1 0.6 0.5 1 0.4 0.5 1 0.7 0.7 0.2 1.7 0.1 0.8-0.2 1.4-0.6 0.6-0.4 0.8-1 0.2-0.6 0.1-1.2z"/>
	<path class="s1" d="m23.5 95l-8.9-0.2v-1.9l1.5-0.2q-0.8-0.4-1.2-1.2-0.5-0.8-0.5-1.8 0.1-1.1 0.6-1.9 0.4-0.7 1.3-1.1 0.9-0.4 2.2-0.4l5.1 0.1v2.2l-4.9-0.1q-1.2-0.1-1.8 0.4-0.6 0.5-0.7 1.5 0 0.6 0.3 1.2 0.3 0.5 0.9 0.8 0.6 0.3 1.4 0.3l4.7 0.1z"/>
	<path class="s1" d="m24.8 78.7q-0.2 0.9-0.6 1.5-0.4 0.6-1.1 0.8-0.7 0.2-1.8 0l-4-0.7-0.3 1.5-1.8-0.3 0.3-1.5-2.3-0.7 0.4-1.9 2.3 0.5 0.4-2.4 1.8 0.3-0.4 2.4 4 0.7q0.7 0.2 1-0.1 0.3-0.2 0.4-0.9l0.2-1.1 1.8 0.4z"/>
	<path class="s1" d="m27.1 70.7q-0.3 1-0.9 1.6-0.6 0.5-1.3 0.6-0.7 0.2-1.4-0.1-0.8-0.3-1.3-0.9-0.4-0.6-0.4-1.5-0.1-1 0.4-2.1l0.7-2.2q-0.6-0.2-1.1-0.2-0.5 0.1-0.9 0.4-0.4 0.3-0.6 0.9-0.2 0.7-0.1 1.3 0.2 0.6 0.8 0.9l-0.8 2q-0.8-0.4-1.3-1.2-0.5-0.7-0.5-1.7-0.1-0.9 0.3-1.9 0.4-1.2 1.1-1.9 0.8-0.7 1.7-0.9 0.9-0.1 2 0.2l5.1 1.9-0.6 1.7-1.4-0.3q0.3 0.3 0.4 0.7 0.2 0.4 0.3 0.8 0.1 0.4 0.1 0.9-0.1 0.4-0.3 1zm-1.4-1.1q0.2-0.5 0.2-0.9-0.1-0.5-0.3-0.8-0.2-0.4-0.6-0.7-0.3-0.3-0.8-0.5l-0.7 1.8q-0.2 0.6-0.2 1.1 0.1 0.4 0.3 0.7 0.2 0.2 0.5 0.3 0.3 0.2 0.7 0.1 0.3-0.1 0.5-0.3 0.3-0.3 0.4-0.8z"/>
	<path class="s1" d="m32.6 58.6q-0.7 1.2-1.7 1.8-1.1 0.6-2.3 0.5-1.2 0-2.3-0.7-1.2-0.7-1.8-1.7-0.6-1.1-0.6-2.2 0-1.2 0.6-2.4 0.9-1.5 2.2-2 1.4-0.5 2.8 0l-1.1 1.9q-0.7-0.2-1.3 0.1-0.6 0.3-1 0.9-0.3 0.6-0.3 1.2 0 0.7 0.4 1.3 0.4 0.6 1.2 1 0.5 0.4 1.1 0.5 0.5 0.1 1 0 0.5-0.1 0.9-0.4 0.4-0.3 0.6-0.7 0.3-0.4 0.3-0.9 0.1-0.4 0-0.8-0.2-0.5-0.5-0.8l1.1-1.9q1.2 1 1.4 2.4 0.1 1.5-0.7 2.9z"/>
	<path class="s1" d="m39.2 48.9q-0.6 0.7-1.2 1-0.7 0.4-1.4 0.2-0.8-0.1-1.6-0.8l-3.2-2.7-1 1.2-1.3-1.1 0.9-1.2-1.6-1.7 1.2-1.4 1.8 1.5 1.6-1.9 1.3 1.1-1.5 1.9 3.1 2.6q0.6 0.5 1 0.4 0.3-0.1 0.8-0.6l0.7-0.8 1.4 1.1z"/>
	<path class="s1" d="m50.6 38.5q-0.9 0.6-1.8 0.7-0.9 0.1-1.7-0.4-0.9-0.5-1.6-1.6l-3-4.2 1.8-1.2 2.8 4q0.7 1 1.4 1.2 0.8 0.2 1.6-0.3 0.5-0.4 0.8-0.9 0.2-0.6 0.1-1.3-0.1-0.6-0.6-1.3l-2.6-3.8 1.7-1.3 5.1 7.3-1.5 1.1-1-1.1q0.1 0.9-0.3 1.7-0.3 0.8-1.2 1.4z"/>
	<path class="s1" d="m61.6 32q-1.1 0.5-2.1 0.5-0.9 0.1-1.7-0.3-0.8-0.5-1.2-1.2l1.9-0.9q0.3 0.3 0.6 0.5 0.4 0.1 0.8 0.1 0.4 0 0.9-0.2 0.5-0.2 0.8-0.5 0.2-0.3 0.2-0.6 0.1-0.2 0-0.5-0.2-0.4-0.5-0.5-0.3-0.1-0.8 0-0.4 0-1 0.2-0.6 0.1-1.2 0.2-0.7 0.1-1.2 0-0.6-0.1-1-0.3-0.5-0.3-0.7-0.9-0.3-0.7-0.2-1.4 0.1-0.8 0.7-1.4 0.5-0.7 1.5-1.2 1.4-0.6 2.6-0.3 1.1 0.2 1.8 1.3l-1.8 0.9q-0.3-0.4-0.8-0.5-0.5-0.1-1.1 0.2-0.6 0.3-0.8 0.6-0.2 0.4-0.1 0.8 0.2 0.3 0.5 0.4 0.3 0.1 0.7 0 0.5 0 1-0.2 1-0.2 1.8-0.3 0.8 0 1.4 0.2 0.7 0.3 1.1 1.2 0.3 0.7 0.2 1.5-0.1 0.8-0.7 1.5-0.6 0.6-1.6 1.1z"/>
	<path class="s1" d="m76.6 20.3l-0.2-2.6-1.7 1.9-1-1.3 2.1-1.3-2.4-0.6 0.5-1.5 2.3 1.3-0.7-2.5 1.5-0.3 0.1 2.6 1.8-1.9 1 1.3-2.2 1.3 2.5 0.6-0.6 1.5-2.3-1.2 0.8 2.4z"/>
	<path class="s1" d="m101.3 79.6c0.6 0.6 0.6 1.6 0 2.3l-18.2 18.2c-0.7 0.6-1.7 0.6-2.3 0-0.6-0.6-0.6-1.7 0-2.3l18.2-18.2c0.6-0.6 1.7-0.6 2.3 0z"/>
	<path class="s1" d="m79.3 80.7c0-0.9 0.7-1.6 1.6-1.6h19.2c0.9 0 1.7 0.7 1.7 1.6v19.3c0 0.9-0.8 1.6-1.7 1.6-0.8 0-1.6-0.7-1.6-1.6v-17.7h-17.6c-0.9 0-1.6-0.7-1.6-1.6z"/>
</svg>