<svg width="188" height="186" viewBox="0 0 188 186" fill="none" xmlns="http://www.w3.org/2000/svg">
<circle cx="93.5" cy="92.5" r="90.5" fill="#3D5641"/>
<path d="M85 85H102.825V102.015" stroke="white" stroke-width="2" stroke-linecap="round"/>
<path d="M102.256 86L82 105.445" stroke="white" stroke-width="2" stroke-linecap="round"/>
<path d="M81.769 165.799L83.5252 165.934C83.5903 166.447 83.738 166.905 83.9683 167.307C84.1938 167.709 84.4808 168.054 84.8291 168.342C85.1723 168.634 85.5607 168.863 85.9943 169.03C86.428 169.196 86.8855 169.298 87.3671 169.335C88.2452 169.402 89.0577 169.241 89.8046 168.852C90.5468 168.463 91.1612 167.852 91.6477 167.02C92.1295 166.188 92.4185 165.145 92.515 163.889C92.6114 162.633 92.485 161.557 92.1359 160.661C91.7821 159.765 91.2681 159.068 90.594 158.57C89.9152 158.071 89.1368 157.788 88.2587 157.721C87.7772 157.684 87.3094 157.715 86.8555 157.813C86.4016 157.911 85.9829 158.076 85.5995 158.307C85.2109 158.544 84.8745 158.843 84.5902 159.206C84.3009 159.573 84.085 160.003 83.9428 160.495L82.1866 160.36C82.3756 159.629 82.6673 158.985 83.0616 158.426C83.4559 157.867 83.9285 157.403 84.4793 157.032C85.0298 156.666 85.6366 156.401 86.2997 156.239C86.958 156.075 87.6531 156.022 88.3848 156.078C89.6217 156.173 90.6985 156.56 91.6152 157.238C92.5319 157.916 93.2236 158.833 93.6904 159.99C94.1572 161.147 94.3319 162.49 94.2145 164.019C94.0971 165.549 93.7194 166.849 93.0815 167.921C92.4436 168.993 91.62 169.794 90.6105 170.324C89.601 170.855 88.4778 171.072 87.2409 170.977C86.5092 170.921 85.8305 170.762 85.2047 170.501C84.5743 170.238 84.0151 169.882 83.5274 169.432C83.0392 168.986 82.643 168.457 82.3386 167.844C82.0338 167.237 81.8439 166.555 81.769 165.799Z" fill="white"/>
<path d="M77.6221 154.714C78.5811 154.939 79.369 155.364 79.986 155.99C80.5984 156.614 81.0115 157.384 81.2252 158.3C81.4342 159.215 81.4104 160.22 81.1536 161.318C80.8947 162.424 80.4681 163.343 79.8739 164.074C79.2751 164.805 78.5627 165.314 77.7366 165.602C76.906 165.889 76.0112 165.92 75.0523 165.696C74.0933 165.472 73.3077 165.047 72.6953 164.422C72.0783 163.797 71.6658 163.024 71.4578 162.105C71.2452 161.185 71.2684 160.172 71.5273 159.065C71.7841 157.968 72.2113 157.056 72.809 156.331C73.4022 155.604 74.1141 155.097 74.9447 154.81C75.7707 154.522 76.6632 154.49 77.6221 154.714ZM77.279 156.18C76.5506 156.01 75.9076 156.056 75.3499 156.32C74.7923 156.583 74.3293 156.993 73.961 157.548C73.5927 158.104 73.3255 158.737 73.1593 159.447C72.9932 160.157 72.9513 160.845 73.0337 161.511C73.1162 162.177 73.3483 162.754 73.73 163.242C74.1118 163.73 74.6669 164.06 75.3954 164.23C76.1238 164.4 76.7674 164.352 77.3261 164.084C77.8848 163.816 78.3489 163.402 78.7182 162.841C79.0876 162.281 79.3554 161.646 79.5215 160.936C79.6877 160.226 79.729 159.54 79.6455 158.879C79.562 158.217 79.3288 157.645 78.946 157.161C78.5631 156.678 78.0075 156.351 77.279 156.18Z" fill="white"/>
<path d="M67.5305 159.365L69.9836 153.278L71.5383 153.905L67.4602 164.023L65.9583 163.418L66.5955 161.837L66.4638 161.784C66.0195 162.202 65.493 162.469 64.8843 162.587C64.2738 162.708 63.5865 162.615 62.8223 162.307C62.1372 162.031 61.5944 161.649 61.1939 161.16C60.7916 160.677 60.5619 160.094 60.5047 159.412C60.4458 158.735 60.5899 157.966 60.9368 157.106L63.528 150.676L65.0826 151.303L62.5339 157.627C62.2135 158.422 62.1703 159.124 62.4044 159.734C62.6367 160.348 63.1129 160.801 63.8331 161.091C64.3294 161.291 64.8163 161.362 65.2939 161.304C65.7671 161.245 66.1988 161.054 66.5892 160.731C66.9795 160.409 67.2933 159.953 67.5305 159.365Z" fill="white"/>
<path d="M52.2986 155.435L53.0245 154.214L57.884 157.103L57.1581 158.324L52.2986 155.435ZM54.4061 159.729L52.9654 158.872L58.2788 149.935C58.5208 149.528 58.6432 149.187 58.6462 148.914C58.6426 148.642 58.5678 148.416 58.4218 148.235C58.2692 148.056 58.0871 147.904 57.8754 147.778C57.7167 147.684 57.5816 147.614 57.4702 147.57C57.3564 147.53 57.2653 147.498 57.197 147.474L57.6734 146.005C57.7928 146.027 57.9509 146.071 58.1477 146.139C58.3469 146.202 58.5808 146.314 58.8495 146.473C59.2565 146.715 59.6033 147.04 59.89 147.447C60.1726 147.852 60.3356 148.31 60.3791 148.82C60.4185 149.328 60.2761 149.855 59.9519 150.401L54.4061 159.729Z" fill="white"/>
<path d="M52.7983 141.473C53.3316 141.913 53.7328 142.413 54.0018 142.972C54.2678 143.535 54.3705 144.114 54.3098 144.708C54.2462 145.306 53.9885 145.879 53.5366 146.427C53.1389 146.909 52.7216 147.222 52.2846 147.365C51.8447 147.511 51.395 147.539 50.9356 147.449C50.4762 147.359 50.0201 147.197 49.5672 146.965C49.1077 146.733 48.6615 146.482 48.2284 146.211C47.6628 145.855 47.2075 145.562 46.8626 145.333C46.511 145.104 46.2275 144.972 46.0121 144.935C45.7931 144.896 45.5977 144.98 45.426 145.188L45.3898 145.232C44.944 145.773 44.7455 146.315 44.7943 146.858C44.8396 147.399 45.1599 147.915 45.7553 148.406C46.3726 148.915 46.9681 149.179 47.5417 149.198C48.1153 149.217 48.5999 149.131 48.9954 148.942L49.8612 150.393C49.2203 150.723 48.5997 150.88 47.9995 150.864C47.3925 150.848 46.825 150.718 46.2969 150.473C45.7622 150.228 45.283 149.931 44.8592 149.582C44.5889 149.359 44.3055 149.07 44.0091 148.715C43.706 148.361 43.4713 147.949 43.3053 147.481C43.1355 147.009 43.1053 146.484 43.2144 145.905C43.3236 145.326 43.6539 144.703 44.2052 144.034L48.7782 138.489L50.0713 139.556L49.1314 140.695L49.1971 140.75C49.4354 140.639 49.7427 140.564 50.119 140.525C50.4953 140.485 50.9135 140.532 51.3737 140.667C51.8339 140.801 52.3088 141.069 52.7983 141.473ZM51.643 142.472C51.1316 142.05 50.6178 141.795 50.1014 141.707C49.5814 141.616 49.1008 141.655 48.6597 141.825C48.215 141.992 47.848 142.251 47.5588 142.602L46.5828 143.786C46.6918 143.765 46.8621 143.804 47.0935 143.903C47.3184 144.003 47.5679 144.132 47.8421 144.29C48.1097 144.45 48.3688 144.608 48.6193 144.766C48.8632 144.924 49.0621 145.051 49.216 145.147C49.5882 145.38 49.9611 145.568 50.3347 145.711C50.7016 145.854 51.0544 145.902 51.393 145.856C51.725 145.811 52.0266 145.624 52.2977 145.295C52.6682 144.846 52.7822 144.369 52.6396 143.865C52.4903 143.361 52.1581 142.897 51.643 142.472Z" fill="white"/>
<path d="M44.8537 133.668C45.5341 134.431 45.9398 135.25 46.0707 136.122C46.2015 136.995 46.0829 137.862 45.7148 138.723C45.3467 139.584 44.7561 140.376 43.9431 141.101C43.116 141.838 42.2506 142.336 41.3469 142.596C40.4366 142.856 39.5588 142.871 38.7135 142.641C37.8615 142.411 37.1079 141.928 36.4526 141.193C35.9423 140.62 35.5884 140.01 35.391 139.361C35.1935 138.713 35.155 138.072 35.2752 137.438C35.3955 136.804 35.6787 136.225 36.1247 135.701L37.2399 136.952C36.9538 137.379 36.814 137.884 36.8207 138.468C36.8207 139.051 37.0664 139.619 37.5578 140.17C37.9925 140.658 38.501 140.972 39.0831 141.113C39.6585 141.253 40.2674 141.221 40.9096 141.017C41.5452 140.812 42.1705 140.435 42.7855 139.887C43.4147 139.327 43.8744 138.739 44.1646 138.125C44.4516 137.508 44.5619 136.902 44.4955 136.308C44.4259 135.711 44.1706 135.165 43.7296 134.67C43.4398 134.345 43.1202 134.1 42.7708 133.935C42.4214 133.771 42.0588 133.692 41.6829 133.697C41.307 133.702 40.9359 133.798 40.5697 133.985L39.4545 132.734C39.9982 132.376 40.5872 132.165 41.2213 132.101C41.8488 132.036 42.4789 132.131 43.1115 132.386C43.7374 132.64 44.3181 133.067 44.8537 133.668Z" fill="white"/>
<path d="M28.4625 130.06L29.6548 129.288L32.7278 134.033L31.5355 134.805L28.4625 130.06ZM28.4461 134.843L27.535 133.436L36.2625 127.784C36.6599 127.527 36.9206 127.276 37.0447 127.032C37.1622 126.787 37.1956 126.551 37.1448 126.324C37.0874 126.096 36.9918 125.879 36.858 125.672C36.7576 125.517 36.6673 125.395 36.587 125.306C36.5028 125.22 36.4354 125.151 36.3849 125.099L37.4634 123.994C37.561 124.066 37.683 124.176 37.8294 124.324C37.9798 124.469 38.1399 124.673 38.3098 124.935C38.5672 125.333 38.734 125.778 38.8101 126.27C38.8837 126.758 38.8268 127.241 38.6392 127.717C38.449 128.19 38.0876 128.599 37.5551 128.944L28.4461 134.843Z" fill="white"/>
<path d="M16.5186 108.253L16.0518 106.555L25.3383 104.003C26.297 103.74 27.2152 103.73 28.0927 103.975C28.9644 104.217 29.7294 104.687 30.3878 105.385C31.0415 106.084 31.5196 106.984 31.8219 108.084C32.1243 109.185 32.1732 110.202 31.9686 111.138C31.7595 112.074 31.3426 112.871 30.7181 113.529C30.0877 114.183 29.2931 114.642 28.3344 114.906L19.0479 117.458L18.5812 115.759L27.7307 113.245C28.4155 113.057 28.9836 112.739 29.435 112.29C29.8818 111.844 30.1816 111.3 30.3344 110.659C30.4814 110.014 30.4477 109.302 30.2331 108.521C30.0186 107.74 29.6835 107.11 29.2278 106.632C28.7676 106.154 28.2319 105.84 27.6207 105.689C27.0038 105.534 26.3529 105.551 25.668 105.739L16.5186 108.253Z" fill="white"/>
<path d="M20.7887 93.9794L21.3847 95.4262C21.1463 95.5491 20.9201 95.7158 20.7061 95.9264C20.4868 96.1328 20.3175 96.4002 20.1982 96.7286C20.0788 97.0569 20.047 97.4634 20.103 97.9478C20.1795 98.611 20.3962 99.1461 20.753 99.5529C21.1045 99.9556 21.5131 100.13 21.9788 100.076C22.3927 100.029 22.7022 99.8403 22.9073 99.5115C23.1125 99.1828 23.2581 98.6894 23.3442 98.0312L23.5535 96.377C23.6769 95.3809 23.9533 94.6173 24.383 94.0863C24.8079 93.5559 25.399 93.247 26.1563 93.1595C26.7772 93.0879 27.3528 93.2025 27.8833 93.5035C28.4132 93.7998 28.8559 94.2492 29.2114 94.8516C29.5669 95.454 29.7933 96.1762 29.8905 97.0181C30.0181 98.1234 29.8838 99.066 29.4877 99.8457C29.0915 100.625 28.4436 101.165 27.544 101.464L26.9664 99.9295C27.5323 99.7116 27.9369 99.3766 28.1802 98.9243C28.4229 98.4673 28.5049 97.8978 28.4262 97.2157C28.3366 96.4396 28.1009 95.8425 27.7189 95.4242C27.3318 95.0018 26.9053 94.8175 26.4397 94.8713C26.0634 94.9147 25.7635 95.0828 25.5399 95.3755C25.3116 95.6688 25.1654 96.0956 25.1014 96.6558L24.8866 98.5109C24.766 99.5305 24.4856 100.302 24.0455 100.824C23.6002 101.343 23.0035 101.645 22.2557 101.732C21.6442 101.802 21.0835 101.693 20.5735 101.404C20.0629 101.11 19.6391 100.68 19.302 100.114C18.9644 99.5425 18.7516 98.876 18.6637 98.114C18.5399 97.0416 18.6778 96.1725 19.0776 95.5067C19.4768 94.8362 20.0472 94.3271 20.7887 93.9794Z" fill="white"/>
<path d="M24.3409 79.1637L21.2947 78.4572L22.4372 81.37L21.136 81.8122L20.2437 78.8032L18.2913 81.2605L17.2498 80.364L19.3983 78.0894L16.3088 77.606L16.5684 76.2673L19.6146 76.9738L18.4722 74.061L19.7733 73.6188L20.6656 76.6278L22.618 74.1705L23.6596 75.067L21.5111 77.3416L24.6006 77.825L24.3409 79.1637Z" fill="white"/>
<path d="M30.9803 51.7428L30.1389 53.2902C29.6441 53.1397 29.166 53.0872 28.7046 53.1328C28.2456 53.1742 27.8134 53.2949 27.4082 53.495C27.0011 53.6886 26.633 53.9492 26.3039 54.2769C25.9748 54.6046 25.6949 54.9806 25.4642 55.4048C25.0435 56.1785 24.8579 56.9857 24.9073 57.8265C24.959 58.663 25.2648 59.4734 25.8247 60.2575C26.3869 61.0375 27.2212 61.7283 28.3277 62.33C29.4341 62.9317 30.4675 63.2565 31.4277 63.3043C32.3903 63.3481 33.2367 63.1643 33.967 62.7529C34.6995 62.3375 35.2762 61.7429 35.6969 60.9692C35.9276 60.5449 36.091 60.1056 36.1872 59.6513C36.2833 59.1969 36.3041 58.7474 36.2495 58.3027C36.193 57.8516 36.0573 57.4221 35.8426 57.0143C35.6259 56.6 35.322 56.2272 34.9308 55.896L35.7722 54.3486C36.362 54.8202 36.831 55.3501 37.1794 55.9384C37.5278 56.5267 37.7586 57.148 37.8717 57.8024C37.9806 58.4545 37.9737 59.1163 37.851 59.788C37.7305 60.4555 37.495 61.1116 37.1444 61.7563C36.5518 62.8462 35.7586 63.6706 34.7647 64.2296C33.7708 64.7887 32.6507 65.0446 31.4044 64.9975C30.1581 64.9503 28.8611 64.5603 27.5134 63.8275C26.1656 63.0946 25.1333 62.2179 24.4163 61.1974C23.6992 60.1769 23.3052 59.0976 23.2342 57.9596C23.1632 56.8215 23.424 55.7075 24.0167 54.6177C24.3673 53.9729 24.79 53.4186 25.2848 52.9547C25.7818 52.4866 26.3357 52.1222 26.9464 51.8614C27.553 51.5984 28.1978 51.4532 28.881 51.4259C29.56 51.3963 30.2598 51.5019 30.9803 51.7428Z" fill="white"/>
<path d="M43.1282 53.421C42.5311 54.2043 41.8209 54.7494 40.9974 55.0564C40.1769 55.3597 39.3051 55.4216 38.3823 55.242C37.4623 55.0587 36.5542 54.6254 35.658 53.9423C34.7542 53.2534 34.0902 52.4883 33.6659 51.6468C33.2444 50.8017 33.0712 49.9433 33.1462 49.0717C33.224 48.1963 33.5615 47.367 34.1585 46.5838C34.7556 45.8005 35.4644 45.2573 36.285 44.954C37.1084 44.647 37.982 44.5866 38.9058 44.7728C39.8324 44.9552 40.7476 45.3908 41.6513 46.0797C42.5475 46.7629 43.2045 47.5256 43.6222 48.3679C44.0427 49.2065 44.2141 50.0634 44.1362 50.9388C44.0612 51.8104 43.7252 52.6378 43.1282 53.421ZM41.9307 52.5083C42.3842 51.9133 42.6049 51.3075 42.5926 50.6909C42.5804 50.0743 42.3961 49.4843 42.0397 48.9209C41.6833 48.3575 41.2151 47.8548 40.6352 47.4128C40.0553 46.9707 39.4446 46.6511 38.8032 46.4538C38.1617 46.2566 37.5402 46.2323 36.9386 46.381C36.337 46.5298 35.8095 46.9016 35.356 47.4966C34.9025 48.0915 34.6837 48.6987 34.6997 49.3182C34.7157 49.9377 34.9038 50.5305 35.264 51.0968C35.6241 51.6631 36.0942 52.1672 36.6741 52.6093C37.254 53.0513 37.8628 53.3695 38.5005 53.5639C39.1382 53.7583 39.7559 53.7797 40.3537 53.6281C40.9515 53.4765 41.4772 53.1032 41.9307 52.5083Z" fill="white"/>
<path d="M43.6264 42.581L48.177 47.3095L46.9693 48.4717L39.4046 40.6115L40.5714 39.4886L41.7534 40.7168L41.8557 40.6183C41.6558 40.0418 41.6269 39.4519 41.7691 38.8485C41.9079 38.2417 42.2742 37.6527 42.8678 37.0814C43.4 36.5692 43.9707 36.2302 44.58 36.0644C45.186 35.8952 45.8117 35.9239 46.457 36.1506C47.099 36.3738 47.7418 36.8198 48.3853 37.4885L53.192 42.483L51.9843 43.6453L47.2564 38.7326C46.6621 38.1152 46.0388 37.7884 45.3865 37.7525C44.7309 37.7131 44.1234 37.9627 43.5639 38.5012C43.1784 38.8722 42.9143 39.2874 42.7715 39.7468C42.6322 40.2029 42.6298 40.675 42.7645 41.1631C42.8991 41.6512 43.1864 42.1239 43.6264 42.581Z" fill="white"/>
<path d="M52.6649 29.6701L53.4822 30.832L48.8581 34.0845L48.0408 32.9227L52.6649 29.6701ZM47.8849 29.8369L49.2559 28.8726L55.2379 37.3772C55.5103 37.7645 55.7707 38.0154 56.0192 38.1301C56.2689 38.2381 56.506 38.2624 56.7304 38.203C56.956 38.1369 57.1695 38.033 57.3709 37.8914C57.5219 37.7851 57.6404 37.6902 57.7263 37.6066C57.8095 37.5192 57.8761 37.4492 57.926 37.3967L59.0711 38.4321C59.0027 38.5324 58.8975 38.6585 58.7554 38.8105C58.6162 38.9663 58.4187 39.1341 58.1631 39.3139C57.7758 39.5863 57.3377 39.77 56.8488 39.865C56.3638 39.9573 55.8794 39.9188 55.3957 39.7496C54.9159 39.5777 54.4934 39.2323 54.1284 38.7133L47.8849 29.8369Z" fill="white"/>
<path d="M64.3839 35.9977C63.7644 36.3044 63.1444 36.4661 62.5239 36.4828C61.9013 36.4951 61.3312 36.3521 60.8135 36.0536C60.2938 35.7509 59.8764 35.2813 59.5612 34.6448C59.2839 34.0847 59.1694 33.5761 59.2178 33.1189C59.2641 32.6575 59.4224 32.2356 59.6928 31.8534C59.9632 31.4712 60.2971 31.121 60.6943 30.8028C61.0936 30.4783 61.5056 30.1739 61.9302 29.8897C62.4865 29.5192 62.9397 29.2235 63.2899 29.0025C63.6423 28.7752 63.8792 28.5707 64.0006 28.3891C64.1263 28.2053 64.1292 27.9925 64.0095 27.7507L63.9843 27.6998C63.6733 27.0718 63.2599 26.6689 62.7439 26.4911C62.2322 26.3112 61.6305 26.3925 60.9388 26.735C60.2217 27.0901 59.7372 27.5254 59.4854 28.0411C59.2335 28.5568 59.113 29.0338 59.124 29.4722L57.4462 29.6689C57.4067 28.9488 57.5171 28.3182 57.7776 27.7772C58.0402 27.2298 58.3914 26.7653 58.8312 26.3837C59.2731 25.9958 59.7402 25.68 60.2324 25.4363C60.5464 25.2809 60.926 25.1405 61.3712 25.0151C61.8185 24.8835 62.2898 24.8377 62.7851 24.8777C63.2847 24.9157 63.7763 25.1029 64.2599 25.4393C64.7435 25.7758 65.1775 26.3323 65.562 27.1088L68.7512 33.55L67.2492 34.2937L66.5937 32.9698L66.5173 33.0076C66.5205 33.2702 66.4632 33.5813 66.3453 33.9408C66.2274 34.3003 66.0132 34.6626 65.7026 35.0277C65.392 35.3928 64.9525 35.7162 64.3839 35.9977ZM63.9449 34.5349C64.539 34.2408 64.9819 33.8762 65.2737 33.4411C65.5697 33.0039 65.7303 32.5493 65.7554 32.0772C65.7848 31.603 65.6987 31.1622 65.497 30.7549L64.8163 29.3801C64.7904 29.488 64.6851 29.6273 64.5002 29.7981C64.3174 29.9625 64.0976 30.1374 63.8406 30.3228C63.5858 30.5018 63.3353 30.6734 63.089 30.8376C62.8449 30.9954 62.6475 31.1249 62.4967 31.2259C62.1316 31.4702 61.8076 31.7336 61.5249 32.0162C61.2443 32.2925 61.0557 32.5946 60.9592 32.9224C60.8647 33.2439 60.9121 33.5956 61.1012 33.9775C61.3596 34.4994 61.748 34.7984 62.2665 34.8746C62.7871 34.9444 63.3466 34.8311 63.9449 34.5349Z" fill="white"/>
<path d="M74.7246 31.8115C73.7496 32.1201 72.8371 32.1556 71.9871 31.918C71.1372 31.6804 70.3948 31.2176 69.7599 30.5296C69.125 29.8415 68.6432 28.9784 68.3147 27.9401C67.9804 26.8838 67.8795 25.8902 68.012 24.9593C68.1475 24.0225 68.493 23.2154 69.0485 22.538C69.607 21.8547 70.3557 21.3644 71.2946 21.0673C72.0259 20.8359 72.7279 20.7627 73.4004 20.8478C74.073 20.933 74.6737 21.16 75.2027 21.529C75.7317 21.8979 76.1442 22.3932 76.4402 23.0146L74.8421 23.5204C74.5703 23.0849 74.1665 22.7508 73.631 22.518C73.0986 22.2793 72.4802 22.2714 71.776 22.4942C71.1531 22.6914 70.6583 23.0268 70.2916 23.5004C69.9281 23.968 69.7083 24.5367 69.6322 25.2064C69.5592 25.8701 69.647 26.5948 69.8955 27.3802C70.1498 28.1838 70.4977 28.8435 70.939 29.3593C71.3849 29.8738 71.8925 30.2222 72.4617 30.4046C73.0355 30.5855 73.6384 30.576 74.2703 30.376C74.6857 30.2446 75.0397 30.0531 75.3326 29.8015C75.6254 29.5499 75.8464 29.2515 75.9954 28.9064C76.1444 28.5612 76.2086 28.1833 76.1879 27.7727L77.7859 27.267C77.8899 27.9095 77.8415 28.5332 77.6406 29.1381C77.4427 29.7371 77.0984 30.2731 76.6075 30.7463C76.1197 31.2136 75.4921 31.5687 74.7246 31.8115Z" fill="white"/>
<path d="M85.0135 18.5358L85.2304 19.9396L79.6432 20.8026L79.4264 19.3988L85.0135 18.5358ZM80.6558 16.5643L82.3123 16.3084L83.8995 26.5843C83.9718 27.0522 84.0939 27.3927 84.2657 27.6057C84.4415 27.8133 84.6432 27.9402 84.8707 27.9865C85.1022 28.0274 85.3396 28.0291 85.5829 27.9915C85.7654 27.9633 85.9137 27.9308 86.0278 27.8941C86.1412 27.8526 86.2319 27.8194 86.2999 27.7945L86.8667 29.2305C86.7609 29.29 86.6106 29.3563 86.4159 29.4295C86.2219 29.5074 85.9705 29.5702 85.6617 29.6179C85.1937 29.6902 84.7196 29.6604 84.2393 29.5286C83.7637 29.396 83.3467 29.1466 82.9883 28.7804C82.6346 28.4134 82.4093 27.9164 82.3124 27.2894L80.6558 16.5643Z" fill="white"/>
<path d="M109.813 16.5117L111.554 16.7806L110.083 26.2984C109.932 27.2811 109.564 28.1227 108.982 28.8232C108.405 29.5198 107.663 30.0257 106.757 30.3408C105.851 30.6513 104.835 30.7195 103.707 30.5453C102.579 30.3711 101.631 29.9994 100.861 29.4301C100.092 28.8562 99.5351 28.1498 99.1904 27.3108C98.8511 26.4679 98.7573 25.5551 98.9091 24.5724L100.379 15.0546L102.12 15.3235L100.672 24.7009C100.563 25.4028 100.621 26.0514 100.845 26.6466C101.07 27.2371 101.444 27.7332 101.966 28.1349C102.494 28.5326 103.158 28.7933 103.959 28.9169C104.759 29.0405 105.47 28.9923 106.094 28.7723C106.718 28.5477 107.224 28.1875 107.612 27.6917C108.005 27.1919 108.256 26.5911 108.364 25.8892L109.813 16.5117Z" fill="white"/>
<path d="M121.684 24.8805L120.12 24.8325C120.106 24.5646 120.046 24.29 119.942 24.0086C119.843 23.7241 119.668 23.4602 119.417 23.2169C119.167 22.9737 118.809 22.7785 118.344 22.6313C117.707 22.4299 117.13 22.4088 116.613 22.5679C116.102 22.7239 115.776 23.0254 115.634 23.4723C115.508 23.8696 115.554 24.229 115.77 24.5507C115.986 24.8723 116.376 25.207 116.942 25.5548L118.366 26.4226C119.224 26.9426 119.808 27.5072 120.117 28.1165C120.427 28.7212 120.467 29.387 120.237 30.1137C120.048 30.7096 119.708 31.188 119.217 31.5489C118.729 31.9112 118.138 32.1314 117.443 32.2094C116.748 32.2874 115.996 32.1985 115.188 31.9428C114.128 31.6071 113.322 31.099 112.773 30.4185C112.223 29.7381 111.996 28.9262 112.091 27.9828L113.728 28.0836C113.695 28.6891 113.835 29.1954 114.149 29.6024C114.466 30.0108 114.952 30.3186 115.607 30.5258C116.352 30.7615 116.993 30.7907 117.531 30.6132C118.075 30.4327 118.418 30.119 118.559 29.6721C118.673 29.311 118.643 28.9685 118.467 28.6448C118.293 28.3165 117.963 28.0085 117.478 27.7209L115.873 26.7661C114.992 26.2389 114.403 25.6677 114.106 25.0522C113.815 24.4337 113.783 23.7656 114.01 23.0478C114.196 22.461 114.525 21.994 114.998 21.6469C115.475 21.3012 116.04 21.0904 116.695 21.0145C117.354 20.9401 118.05 21.0186 118.781 21.25C119.81 21.5757 120.547 22.0571 120.991 22.6943C121.439 23.3328 121.67 24.0616 121.684 24.8805Z" fill="white"/>
<path d="M133.925 35.0253L135.815 32.5347L132.69 32.3856L132.819 31.0174L135.93 31.4341L134.486 28.6473L135.73 28.0636L136.927 30.9546L138.632 28.3332L139.747 29.1177L137.856 31.6084L140.982 31.7574L140.853 33.1256L137.742 32.709L139.186 35.4958L137.942 36.0794L136.745 33.1885L135.04 35.8099L133.925 35.0253Z" fill="white"/>
<path d="M161.498 62.1727L160.656 60.6253C161.052 60.2918 161.356 59.919 161.568 59.507C161.783 59.0992 161.916 58.6709 161.969 58.222C162.028 57.775 162.009 57.3244 161.913 56.87C161.817 56.4157 161.653 55.9764 161.422 55.5521C161.002 54.7784 160.425 54.1838 159.692 53.7684C158.962 53.357 158.116 53.1732 157.153 53.217C156.193 53.2649 155.16 53.5896 154.053 54.1913C152.947 54.793 152.112 55.4838 151.55 56.2638C150.99 57.0479 150.685 57.8583 150.633 58.6948C150.583 59.5356 150.769 60.3428 151.19 61.1165C151.42 61.5407 151.7 61.9167 152.029 62.2444C152.359 62.5721 152.725 62.8338 153.128 63.0297C153.537 63.2275 153.971 63.3471 154.43 63.3885C154.896 63.4318 155.374 63.3793 155.864 63.2311L156.706 64.7785C155.989 65.0171 155.29 65.1228 154.607 65.0954C153.923 65.0681 153.276 64.9241 152.666 64.6633C152.059 64.4003 151.507 64.0347 151.01 63.5666C150.515 63.1027 150.093 62.5484 149.742 61.9036C149.15 60.8138 148.889 59.6998 148.96 58.5618C149.031 57.4237 149.425 56.3444 150.142 55.3239C150.859 54.3034 151.891 53.4267 153.239 52.6938C154.587 51.961 155.884 51.571 157.13 51.5238C158.376 51.4767 159.496 51.7326 160.49 52.2917C161.484 52.8507 162.277 53.6751 162.87 54.765C163.221 55.4097 163.456 56.0658 163.577 56.7333C163.699 57.405 163.704 58.068 163.591 58.7223C163.482 59.3744 163.253 59.9946 162.905 60.5829C162.561 61.1689 162.092 61.6989 161.498 62.1727Z" fill="white"/>
<path d="M153.955 73.0008C153.622 72.0739 153.55 71.1815 153.74 70.3234C153.932 69.4698 154.354 68.7045 155.006 68.0275C155.66 67.3549 156.517 66.8281 157.578 66.4472C158.647 66.0631 159.651 65.9217 160.587 66.0229C161.526 66.1285 162.341 66.4497 163.031 66.9864C163.724 67.5276 164.236 68.2616 164.569 69.1885C164.902 70.1154 164.973 71.0056 164.781 71.8592C164.592 72.7173 164.167 73.4834 163.509 74.1576C162.852 74.8362 161.989 75.3676 160.92 75.7517C159.859 76.1326 158.862 76.2694 157.928 76.1622C156.995 76.0594 156.183 75.7374 155.49 75.1962C154.8 74.6595 154.288 73.9277 153.955 73.0008ZM155.372 72.4919C155.625 73.1959 156.013 73.7104 156.537 74.0353C157.062 74.3602 157.657 74.5262 158.324 74.5333C158.99 74.5404 159.667 74.4207 160.353 74.1742C161.039 73.9277 161.64 73.5889 162.154 73.1577C162.668 72.7265 163.026 72.218 163.228 71.6322C163.431 71.0465 163.405 70.4015 163.152 69.6975C162.899 68.9934 162.509 68.4797 161.98 68.1564C161.451 67.8331 160.852 67.6687 160.18 67.6632C159.509 67.6578 158.831 67.7782 158.144 68.0247C157.458 68.2712 156.86 68.6092 156.35 69.0388C155.841 69.4685 155.487 69.9753 155.289 70.5595C155.091 71.1437 155.119 71.7878 155.372 72.4919Z" fill="white"/>
<path d="M163.222 78.9546L156.78 80.204L156.461 78.5586L167.17 76.4816L167.478 78.0713L165.805 78.3958L165.832 78.5352C166.425 78.6808 166.935 78.9772 167.365 79.4245C167.798 79.8709 168.094 80.4985 168.251 81.3073C168.391 82.0324 168.366 82.6957 168.174 83.2973C167.986 83.8979 167.622 84.4074 167.081 84.8259C166.545 85.2434 165.821 85.5405 164.91 85.7172L158.105 87.0369L157.786 85.3915L164.479 84.0933C165.321 83.9302 165.934 83.5846 166.318 83.0566C166.708 82.5277 166.828 81.8821 166.681 81.1198C166.579 80.5946 166.374 80.1472 166.066 79.7777C165.759 79.4128 165.364 79.1542 164.881 79.0019C164.398 78.8496 163.845 78.8338 163.222 78.9546Z" fill="white"/>
<path d="M169.14 95.0009L167.721 95.0553L167.504 89.406L168.924 89.3516L169.14 95.0009ZM171.599 90.898L171.663 92.5729L161.273 92.9712C160.8 92.9893 160.447 93.0715 160.216 93.2178C159.99 93.3686 159.841 93.5544 159.768 93.7751C159.701 94.0004 159.672 94.2361 159.682 94.4821C159.689 94.6666 159.704 94.8176 159.728 94.9352C159.756 95.0526 159.778 95.1465 159.795 95.2169L158.304 95.6152C158.257 95.5033 158.208 95.3465 158.158 95.1446C158.103 94.943 158.069 94.686 158.057 94.3738C158.039 93.9006 158.123 93.4331 158.309 92.9711C158.495 92.5138 158.791 92.1281 159.196 91.8141C159.601 91.5048 160.12 91.338 160.754 91.3137L171.599 90.898Z" fill="white"/>
<path d="M157.975 101.215C158.054 100.528 158.256 99.9196 158.579 99.3897C158.907 98.8604 159.337 98.4596 159.869 98.1874C160.405 97.9157 161.026 97.8205 161.732 97.902C162.353 97.9737 162.842 98.1541 163.199 98.4432C163.562 98.7328 163.83 99.095 164.003 99.5298C164.177 99.9645 164.29 100.435 164.341 100.941C164.396 101.453 164.428 101.964 164.436 102.475C164.444 103.143 164.446 103.685 164.441 104.099C164.44 104.518 164.483 104.828 164.57 105.029C164.656 105.234 164.833 105.352 165.101 105.383L165.157 105.39C165.853 105.47 166.416 105.342 166.846 105.006C167.275 104.674 167.534 104.125 167.622 103.358C167.714 102.563 167.612 101.92 167.316 101.428C167.02 100.936 166.685 100.576 166.311 100.347L167.058 98.8315C167.684 99.1897 168.153 99.6252 168.466 100.138C168.783 100.656 168.982 101.203 169.063 101.78C169.148 102.361 169.159 102.925 169.096 103.471C169.056 103.819 168.968 104.214 168.831 104.656C168.698 105.103 168.481 105.523 168.178 105.917C167.874 106.316 167.45 106.627 166.905 106.85C166.359 107.073 165.656 107.135 164.796 107.035L157.656 106.211L157.848 104.546L159.315 104.715L159.325 104.631C159.103 104.491 158.873 104.273 158.635 103.979C158.398 103.685 158.21 103.308 158.072 102.849C157.935 102.39 157.902 101.845 157.975 101.215ZM159.441 101.641C159.365 102.3 159.431 102.87 159.637 103.351C159.843 103.837 160.138 104.219 160.52 104.497C160.902 104.779 161.319 104.947 161.771 104.999L163.295 105.175C163.218 105.094 163.158 104.93 163.115 104.682C163.077 104.439 163.049 104.16 163.034 103.843C163.022 103.532 163.014 103.229 163.01 102.933C163.01 102.642 163.009 102.406 163.006 102.224C163 101.785 162.955 101.37 162.871 100.979C162.792 100.593 162.641 100.271 162.418 100.012C162.199 99.7576 161.878 99.6062 161.455 99.5573C160.877 99.4905 160.414 99.654 160.069 100.048C159.727 100.447 159.518 100.978 159.441 101.641Z" fill="white"/>
<path d="M155.623 112.579C155.894 111.592 156.36 110.807 157.021 110.223C157.683 109.639 158.475 109.267 159.398 109.108C160.32 108.949 161.307 109.014 162.357 109.303C163.425 109.596 164.314 110.052 165.023 110.669C165.736 111.292 166.225 112.021 166.492 112.855C166.762 113.695 166.767 114.59 166.506 115.54C166.302 116.279 165.982 116.908 165.545 117.427C165.108 117.945 164.591 118.326 163.994 118.569C163.397 118.813 162.757 118.89 162.074 118.8L162.518 117.184C163.032 117.192 163.531 117.035 164.018 116.712C164.508 116.395 164.85 115.88 165.046 115.168C165.219 114.538 165.207 113.94 165.009 113.375C164.814 112.816 164.456 112.322 163.935 111.894C163.418 111.472 162.762 111.152 161.967 110.934C161.155 110.711 160.412 110.644 159.739 110.734C159.065 110.829 158.496 111.065 158.034 111.444C157.57 111.827 157.25 112.338 157.075 112.978C156.959 113.398 156.928 113.799 156.98 114.181C157.032 114.564 157.162 114.912 157.371 115.224C157.579 115.537 157.862 115.796 158.217 116.002L157.773 117.618C157.178 117.356 156.68 116.977 156.282 116.479C155.887 115.988 155.624 115.407 155.493 114.738C155.366 114.075 155.41 113.355 155.623 112.579Z" fill="white"/>
<path d="M160.794 125.828L159.497 125.247L161.81 120.088L163.106 120.669L160.794 125.828ZM164.817 123.242L164.132 124.772L154.644 120.518C154.212 120.324 153.859 120.242 153.587 120.27C153.317 120.305 153.101 120.405 152.939 120.571C152.778 120.743 152.648 120.942 152.547 121.166C152.472 121.335 152.418 121.477 152.387 121.593C152.36 121.71 152.339 121.804 152.323 121.875L150.81 121.57C150.817 121.449 150.843 121.287 150.888 121.084C150.928 120.879 151.012 120.633 151.139 120.348C151.333 119.916 151.616 119.534 151.988 119.203C152.357 118.876 152.793 118.661 153.296 118.56C153.796 118.462 154.335 118.543 154.914 118.803L164.817 123.242Z" fill="white"/>
<path d="M148.93 147.679L147.758 148.994L140.568 142.586C139.826 141.925 139.319 141.159 139.048 140.289C138.777 139.426 138.755 138.529 138.984 137.597C139.215 136.668 139.711 135.777 140.47 134.925C141.229 134.074 142.057 133.479 142.953 133.143C143.852 132.809 144.748 132.726 145.64 132.893C146.532 133.066 147.349 133.483 148.091 134.145L155.281 140.552L154.109 141.867L147.025 135.554C146.495 135.082 145.919 134.778 145.298 134.643C144.68 134.511 144.06 134.555 143.439 134.775C142.818 135.002 142.239 135.417 141.7 136.022C141.161 136.626 140.815 137.25 140.661 137.892C140.51 138.538 140.537 139.159 140.743 139.754C140.948 140.356 141.316 140.893 141.846 141.366L148.93 147.679Z" fill="white"/>
<path d="M134.618 152.597L135.508 151.31C135.741 151.443 136.004 151.543 136.297 151.608C136.589 151.68 136.906 151.676 137.246 151.598C137.587 151.52 137.945 151.326 138.321 151.015C138.837 150.591 139.168 150.118 139.315 149.597C139.462 149.083 139.387 148.645 139.088 148.284C138.823 147.962 138.497 147.805 138.11 147.811C137.722 147.818 137.229 147.964 136.63 148.249L135.127 148.973C134.224 149.411 133.433 149.594 132.754 149.522C132.078 149.453 131.497 149.125 131.012 148.537C130.614 148.055 130.398 147.509 130.362 146.901C130.323 146.295 130.459 145.679 130.772 145.053C131.084 144.427 131.567 143.845 132.221 143.305C133.079 142.597 133.943 142.198 134.813 142.106C135.683 142.015 136.488 142.266 137.228 142.858L136.254 144.177C135.764 143.821 135.262 143.663 134.751 143.705C134.235 143.749 133.712 143.99 133.183 144.427C132.58 144.924 132.207 145.447 132.063 145.994C131.919 146.549 131.996 147.007 132.295 147.369C132.536 147.661 132.84 147.821 133.207 147.85C133.577 147.882 134.015 147.773 134.52 147.522L136.194 146.694C137.115 146.241 137.915 146.057 138.593 146.142C139.27 146.234 139.848 146.571 140.327 147.152C140.719 147.627 140.932 148.157 140.967 148.742C140.998 149.33 140.867 149.92 140.575 150.51C140.279 151.104 139.835 151.645 139.243 152.133C138.41 152.82 137.606 153.177 136.83 153.203C136.05 153.232 135.313 153.03 134.618 152.597Z" fill="white"/>
<path d="M120.139 158.148L121.202 161.089L123.026 158.547L124.104 159.399L122.063 161.783L125.187 162.086L125.001 163.448L121.924 162.881L123.197 165.737L121.933 166.247L120.87 163.306L119.046 165.848L117.967 164.996L120.008 162.612L116.884 162.309L117.071 160.947L120.148 161.514L118.874 158.658L120.139 158.148Z" fill="white"/>
</svg>
